<svg width="40" height="40" viewBox="0 0 40 40" fill="none" xmlns="http://www.w3.org/2000/svg">
<path d="M4.90503 36.35H34.335" stroke="#1470C4" stroke-width="1.5" stroke-linecap="round" stroke-linejoin="round"/>
<path d="M4.90503 18.365C4.90503 16.8235 4.90503 16.0528 5.38391 15.5739C5.86279 15.095 6.63354 15.095 8.17503 15.095C9.71652 15.095 10.4873 15.095 10.9661 15.5739C11.445 16.0528 11.445 16.8235 11.445 18.365V28.175C11.445 29.7165 11.445 30.4873 10.9661 30.9662C10.4873 31.445 9.71652 31.445 8.17503 31.445C6.63354 31.445 5.86279 31.445 5.38391 30.9662C4.90503 30.4873 4.90503 29.7165 4.90503 28.175V18.365Z" fill="#1470C4" stroke="#1470C4" stroke-width="1.5"/>
<path d="M16.35 11.825C16.35 10.2835 16.35 9.51275 16.8289 9.03387C17.3077 8.55499 18.0785 8.55499 19.62 8.55499C21.1615 8.55499 21.9322 8.55499 22.4111 9.03387C22.89 9.51275 22.89 10.2835 22.89 11.825V28.175C22.89 29.7165 22.89 30.4872 22.4111 30.9661C21.9322 31.445 21.1615 31.445 19.62 31.445C18.0785 31.445 17.3077 31.445 16.8289 30.9661C16.35 30.4872 16.35 29.7165 16.35 28.175V11.825Z" fill="#1470C4" stroke="#1470C4" stroke-width="1.5"/>
<path d="M27.795 6.92002C27.795 5.37853 27.795 4.60779 28.2739 4.1289C28.7528 3.65002 29.5236 3.65002 31.065 3.65002C32.6065 3.65002 33.3773 3.65002 33.8562 4.1289C34.335 4.60779 34.335 5.37853 34.335 6.92002V28.175C34.335 29.7165 34.335 30.4873 33.8562 30.9661C33.3773 31.445 32.6065 31.445 31.065 31.445C29.5236 31.445 28.7528 31.445 28.2739 30.9661C27.795 30.4873 27.795 29.7165 27.795 28.175V6.92002Z" fill="#1470C4" stroke="#1470C4" stroke-width="1.5"/>
</svg>
