<svg width="150" height="150" viewBox="0 0 150 150" fill="none" xmlns="http://www.w3.org/2000/svg">
<rect width="150" height="150" rx="75" fill="#F5F7F3"/>
<path d="M97.6601 60.4775L99.3594 58.7783C102.175 55.9628 106.74 55.9628 109.555 58.7783C112.371 61.5937 112.371 66.1585 109.555 68.9739L107.856 70.6732M97.6601 60.4775C97.6601 60.4775 97.8725 64.0885 101.059 67.2747C104.245 70.4608 107.856 70.6732 107.856 70.6732M97.6601 60.4775L82.0378 76.0998C80.9797 77.158 80.4506 77.687 79.9956 78.2704C79.4589 78.9585 78.9987 79.7031 78.6233 80.4909C78.305 81.1587 78.0684 81.8685 77.5952 83.2882L76.0801 87.8333L75.59 89.3038M107.856 70.6732L92.2335 86.2955C91.1754 87.3536 90.6463 87.8827 90.063 88.3377C89.3748 88.8744 88.6303 89.3346 87.8425 89.71C87.1746 90.0283 86.4648 90.2649 85.0452 90.7381L80.5 92.2532L79.0295 92.7434M79.0295 92.7434L77.559 93.2335C76.8604 93.4664 76.0902 93.2846 75.5695 92.7638C75.0488 92.2431 74.867 91.4729 75.0998 90.7743L75.59 89.3038M79.0295 92.7434L75.59 89.3038" stroke="#2D5208" stroke-width="3.5"/>
<path d="M60.3334 78.6667H69.5" stroke="#2D5208" stroke-width="3.5" stroke-linecap="round"/>
<path d="M60.3334 64H84.1667" stroke="#2D5208" stroke-width="3.5" stroke-linecap="round"/>
<path d="M60.3334 93.3333H65.8334" stroke="#2D5208" stroke-width="3.5" stroke-linecap="round"/>
<path d="M103.704 42.6291C99.4085 38.3333 92.4945 38.3333 78.6667 38.3333H71.3333C57.5055 38.3333 50.5915 38.3333 46.2958 42.6291C42 46.9249 42 53.8388 42 67.6667V82.3333C42 96.1612 42 103.075 46.2958 107.371C50.5915 111.667 57.5055 111.667 71.3333 111.667H78.6667C92.4945 111.667 99.4085 111.667 103.704 107.371C107.162 103.913 107.837 98.7584 107.968 89.6667" stroke="#2D5208" stroke-width="3.5" stroke-linecap="round"/>
</svg>
