<svg width="150" height="150" viewBox="0 0 150 150" fill="none" xmlns="http://www.w3.org/2000/svg">
<rect width="150" height="150" rx="75" fill="#F5F7F3"/>
<path d="M70.8246 43.3323C72.6824 39.9997 73.6112 38.3333 75 38.3333C76.3887 38.3333 77.3176 39.9997 79.1753 43.3323L79.656 44.1945C80.1839 45.1415 80.4478 45.615 80.8594 45.9275C81.271 46.2399 81.7835 46.3559 82.8087 46.5878L83.742 46.799C87.3495 47.6152 89.1533 48.0233 89.5824 49.4033C90.0116 50.7833 88.7819 52.2213 86.3225 55.0972L85.6862 55.8413C84.9874 56.6585 84.6379 57.0671 84.4807 57.5727C84.3235 58.0782 84.3763 58.6234 84.482 59.7137L84.5782 60.7064C84.95 64.5435 85.1359 66.4621 84.0124 67.315C82.8889 68.1679 81.2001 67.3903 77.8223 65.8351L76.9485 65.4327C75.9886 64.9908 75.5087 64.7698 75 64.7698C74.4913 64.7698 74.0113 64.9908 73.0515 65.4327L72.1776 65.8351C68.7999 67.3903 67.111 68.1679 65.9875 67.315C64.864 66.4621 65.0499 64.5435 65.4218 60.7065L65.518 59.7137C65.6236 58.6234 65.6764 58.0782 65.5192 57.5727C65.362 57.0671 65.0126 56.6585 64.3137 55.8413L63.6775 55.0972C61.2181 52.2213 59.9884 50.7833 60.4175 49.4033C60.8467 48.0233 62.6504 47.6152 66.258 46.799L67.1913 46.5878C68.2164 46.3559 68.729 46.2399 69.1406 45.9275C69.5521 45.615 69.8161 45.1415 70.344 44.1945L70.8246 43.3323Z" stroke="#2D5208" stroke-width="3.5"/>
<path d="M102.246 59.1661C103.175 57.4998 103.639 56.6667 104.333 56.6667C105.028 56.6667 105.492 57.4998 106.421 59.1661L106.661 59.5972C106.925 60.0707 107.057 60.3075 107.263 60.4637C107.469 60.6199 107.725 60.6779 108.238 60.7939L108.704 60.8995C110.508 61.3076 111.41 61.5117 111.625 62.2017C111.839 62.8917 111.224 63.6106 109.995 65.0486L109.676 65.4206C109.327 65.8293 109.152 66.0336 109.074 66.2863C108.995 66.5391 109.022 66.8117 109.074 67.3569L109.122 67.8532C109.308 69.7718 109.401 70.731 108.84 71.1575C108.278 71.5839 107.433 71.1951 105.745 70.4175L105.308 70.2163C104.828 69.9954 104.588 69.8849 104.333 69.8849C104.079 69.8849 103.839 69.9954 103.359 70.2163L102.922 70.4175C101.233 71.1951 100.389 71.5839 99.8271 71.1575C99.2654 70.731 99.3583 69.7718 99.5442 67.8532L99.5923 67.3569C99.6452 66.8117 99.6716 66.5391 99.593 66.2863C99.5144 66.0336 99.3396 65.8293 98.9902 65.4206L98.6721 65.0486C97.4424 63.6106 96.8275 62.8917 97.0421 62.2017C97.2567 61.5117 98.1586 61.3076 99.9623 60.8995L100.429 60.7939C100.942 60.6779 101.198 60.6199 101.404 60.4637C101.609 60.3075 101.741 60.0708 102.005 59.5972L102.246 59.1661Z" stroke="#2D5208" stroke-width="3.5"/>
<path d="M43.579 59.1661C44.5078 57.4998 44.9723 56.6667 45.6666 56.6667C46.361 56.6667 46.8255 57.4998 47.7543 59.1661L47.9946 59.5972C48.2586 60.0707 48.3906 60.3075 48.5964 60.4637C48.8021 60.6199 49.0584 60.6779 49.571 60.7939L50.0377 60.8995C51.8414 61.3076 52.7433 61.5117 52.9579 62.2017C53.1724 62.8917 52.5576 63.6106 51.3279 65.0486L51.0098 65.4206C50.6603 65.8293 50.4856 66.0336 50.407 66.2863C50.3284 66.5391 50.3548 66.8117 50.4077 67.3569L50.4558 67.8532C50.6417 69.7718 50.7346 70.731 50.1729 71.1575C49.6111 71.5839 48.7667 71.1951 47.0778 70.4175L46.6409 70.2163C46.161 69.9954 45.921 69.8849 45.6666 69.8849C45.4123 69.8849 45.1723 69.9954 44.6924 70.2163L44.2555 70.4175C42.5666 71.1951 41.7222 71.5839 41.1604 71.1575C40.5987 70.731 40.6916 69.7718 40.8775 67.8532L40.9256 67.3569C40.9785 66.8117 41.0049 66.5391 40.9263 66.2863C40.8477 66.0336 40.673 65.8293 40.3235 65.4206L40.0054 65.0486C38.7757 63.6106 38.1609 62.8917 38.3754 62.2017C38.59 61.5117 39.4919 61.3076 41.2956 60.8995L41.7623 60.7939C42.2749 60.6779 42.5312 60.6199 42.7369 60.4637C42.9427 60.3075 43.0747 60.0708 43.3387 59.5972L43.579 59.1661Z" stroke="#2D5208" stroke-width="3.5"/>
<path d="M84.8133 95.2297C84.681 95.245 84.5472 95.2597 84.4116 95.2736C84.5454 95.2736 84.6795 95.2584 84.8133 95.2297Z" fill="#D9D9D9"/>
<path d="M84.8133 95.2297C85.2526 95.1788 85.6737 95.1204 86.0754 95.0563C89.4172 94.5233 92.2224 92.7375 94.7905 90.7976L101.417 85.7919C103.753 84.0273 107.22 84.0269 109.557 85.7911C111.66 87.3794 112.303 89.9945 110.973 92.1261C109.423 94.6118 107.238 97.7919 105.14 99.735C103.039 101.681 99.9109 103.418 97.3574 104.651C94.5288 106.016 91.4039 106.803 88.2255 107.317C81.7791 108.361 75.0607 108.201 68.6798 106.887C65.0726 106.144 61.3262 105.757 57.6197 105.757H49.3333V90.5574C58.9745 83.7201 74.933 79.0606 85.1899 85.1783C85.8076 85.5467 86.3632 85.9915 86.838 86.5248C88.8843 88.8233 88.7352 92.2924 86.3768 94.3508C85.8787 94.7855 85.3479 95.1151 84.8133 95.2297ZM84.8133 95.2297C84.6811 95.245 84.5472 95.2597 84.4116 95.2736M84.8133 95.2297C84.6795 95.2584 84.5454 95.2736 84.4116 95.2736M84.4116 95.2736C82.4926 95.4706 80.2476 95.5215 77.7565 95.2863" stroke="#2D5208" stroke-width="3.5" stroke-linecap="round"/>
<rect x="38.3333" y="82.3333" width="11" height="29.3333" rx="1.5" stroke="#2D5208" stroke-width="3.5"/>
</svg>
