<svg width="150" height="150" viewBox="0 0 150 150" fill="none" xmlns="http://www.w3.org/2000/svg">
<rect width="150" height="150" rx="75" fill="#F5F7F3"/>
<path d="M75.0006 89.6667C53.8808 89.6667 50.1394 68.6183 49.4766 51.9237C49.2922 47.2799 49.2001 44.958 50.9443 42.8097C52.6886 40.6614 54.7763 40.3092 58.9517 39.6047C63.0732 38.9093 68.4609 38.3333 75.0006 38.3333C81.5402 38.3333 86.9279 38.9093 91.0495 39.6047C95.2248 40.3092 97.3125 40.6614 99.0568 42.8097C100.801 44.958 100.709 47.2799 100.525 51.9237C99.8617 68.6183 96.1203 89.6667 75.0006 89.6667Z" stroke="#2D5208" stroke-width="3.5"/>
<path d="M75 89.6667V100.667" stroke="#2D5208" stroke-width="3.5" stroke-linecap="round"/>
<path d="M87.8333 111.667H62.1667L63.4105 105.448C63.7533 103.734 65.2581 102.5 67.0059 102.5H82.994C84.7419 102.5 86.2467 103.734 86.5895 105.448L87.8333 111.667Z" stroke="#2D5208" stroke-width="3.5" stroke-linecap="round" stroke-linejoin="round"/>
<path d="M100.667 49.3333L104.145 50.4928C107.775 51.7028 109.59 52.3079 110.628 53.7483C111.667 55.1887 111.667 57.102 111.666 60.9286L111.666 61.1945C111.666 64.3506 111.666 65.9286 110.907 67.2197C110.147 68.5108 108.767 69.2771 106.009 70.8099L95.1667 76.8333" stroke="#2D5208" stroke-width="3.5"/>
<path d="M49.3331 49.3333L45.8548 50.4928C42.2246 51.7028 40.4095 52.3079 39.3714 53.7483C38.3332 55.1887 38.3332 57.102 38.3333 60.9286L38.3334 61.1945C38.3334 64.3506 38.3335 65.9286 39.0932 67.2197C39.8529 68.5108 41.2323 69.2771 43.9912 70.8099L54.8331 76.8333" stroke="#2D5208" stroke-width="3.5"/>
<path d="M71.8685 53.0825C73.2618 50.5831 73.9585 49.3333 75 49.3333C76.0415 49.3333 76.7382 50.5831 78.1315 53.0825L78.492 53.7292C78.8879 54.4395 79.0859 54.7946 79.3946 55.0289C79.7032 55.2632 80.0877 55.3502 80.8565 55.5242L81.5565 55.6826C84.2622 56.2947 85.615 56.6008 85.9368 57.6358C86.2587 58.6708 85.3364 59.7493 83.4919 61.9063L83.0147 62.4643C82.4905 63.0772 82.2285 63.3837 82.1106 63.7628C81.9926 64.142 82.0323 64.5509 82.1115 65.3686L82.1837 66.1132C82.4625 68.991 82.602 70.4299 81.7593 71.0696C80.9167 71.7092 79.6501 71.126 77.1168 69.9596L76.4614 69.6579C75.7415 69.3264 75.3815 69.1607 75 69.1607C74.6185 69.1607 74.2585 69.3264 73.5386 69.6579L72.8832 69.9596C70.3499 71.126 69.0833 71.7092 68.2407 71.0696C67.398 70.4299 67.5375 68.991 67.8163 66.1132L67.8885 65.3686C67.9677 64.5509 68.0074 64.142 67.8894 63.7628C67.7715 63.3837 67.5095 63.0772 66.9853 62.4643L66.5081 61.9063C64.6636 59.7493 63.7413 58.6708 64.0632 57.6358C64.385 56.6008 65.7378 56.2947 68.4435 55.6826L69.1435 55.5242C69.9123 55.3502 70.2968 55.2632 70.6054 55.0289C70.9141 54.7946 71.1121 54.4395 71.508 53.7292L71.8685 53.0825Z" stroke="#2D5208" stroke-width="3.5"/>
<path d="M97 111.667H53" stroke="#2D5208" stroke-width="3.5" stroke-linecap="round"/>
</svg>
