<svg width="35" height="36" viewBox="0 0 35 36" fill="none" xmlns="http://www.w3.org/2000/svg">
<path d="M1.27002 9.74283C1.27002 8.29989 1.27002 7.57842 1.38341 6.97745C1.88256 4.3319 3.95192 2.26253 6.59748 1.76338C7.19845 1.64999 7.91992 1.64999 9.36286 1.64999C9.99507 1.64999 10.3112 1.64999 10.615 1.6784C11.9247 1.80088 13.1671 2.3155 14.1799 3.15504C14.4148 3.34976 14.6383 3.57329 15.0854 4.02033L15.985 4.92C17.3188 6.25379 17.9857 6.92069 18.7843 7.36501C19.223 7.6091 19.6884 7.80185 20.1712 7.93947C21.0501 8.18999 21.9932 8.18999 23.8795 8.18999H24.4904C28.7944 8.18999 30.9463 8.18999 32.3451 9.44807C32.4738 9.56379 32.5962 9.68624 32.7119 9.81491C33.97 11.2137 33.97 13.3656 33.97 17.6696V21.27C33.97 27.436 33.97 30.5189 32.0545 32.4345C30.139 34.35 27.056 34.35 20.89 34.35H14.35C8.18405 34.35 5.10106 34.35 3.18554 32.4345C1.27002 30.5189 1.27002 27.436 1.27002 21.27V9.74283Z" fill="#DE6F09" stroke="#DE6F09" stroke-width="1.5"/>
</svg>
