<svg width="24" height="25" viewBox="0 0 24 25" fill="none" xmlns="http://www.w3.org/2000/svg">
<path fill-rule="evenodd" clip-rule="evenodd" d="M20.75 7.5C20.75 7.91421 20.4142 8.25 20 8.25L4 8.25C3.58579 8.25 3.25 7.91421 3.25 7.5C3.25 7.08579 3.58579 6.75 4 6.75L20 6.75C20.4142 6.75 20.75 7.08579 20.75 7.5Z" fill="#1C274C"/>
<path fill-rule="evenodd" clip-rule="evenodd" d="M20.75 12.5C20.75 12.9142 20.4142 13.25 20 13.25L4 13.25C3.58579 13.25 3.25 12.9142 3.25 12.5C3.25 12.0858 3.58579 11.75 4 11.75L20 11.75C20.4142 11.75 20.75 12.0858 20.75 12.5Z" fill="#1C274C"/>
<path fill-rule="evenodd" clip-rule="evenodd" d="M20.75 17.5C20.75 17.9142 20.4142 18.25 20 18.25L4 18.25C3.58579 18.25 3.25 17.9142 3.25 17.5C3.25 17.0858 3.58579 16.75 4 16.75L20 16.75C20.4142 16.75 20.75 17.0858 20.75 17.5Z" fill="#1C274C"/>
</svg>
