<svg width="40" height="40" viewBox="0 0 40 40" fill="none" xmlns="http://www.w3.org/2000/svg">
<path d="M11.4449 8.08863C11.4449 10.5168 14.2668 13.0746 16.5948 14.7716C17.9013 15.724 18.5546 16.2002 19.62 16.2002C20.6853 16.2002 21.3386 15.724 22.6451 14.7716C24.9731 13.0746 27.7949 10.5168 27.7949 8.08861C27.7949 3.71146 23.2986 2.07723 19.6199 5.45856C15.9413 2.07723 11.4449 3.71146 11.4449 8.08863Z" fill="#98A987"/>
<path d="M16.5948 14.7716L16.153 15.3776L16.5948 14.7716ZM19.6199 5.45856L19.1124 6.01073C19.3994 6.2745 19.8405 6.2745 20.1275 6.01073L19.6199 5.45856ZM22.6451 14.7716L23.0869 15.3777V15.3777L22.6451 14.7716ZM19.62 16.2002L19.62 16.9502H19.62L19.62 16.2002ZM17.0366 14.1655C15.8943 13.3328 14.6581 12.3078 13.7148 11.2144C12.7535 10.1 12.1949 9.02772 12.1949 8.08863H10.6949C10.6949 9.57768 11.5474 10.9984 12.579 12.1942C13.6286 13.4109 14.9673 14.5133 16.153 15.3776L17.0366 14.1655ZM12.1949 8.08863C12.1949 6.17999 13.1515 4.9925 14.3922 4.57499C15.6594 4.14853 17.4255 4.46013 19.1124 6.01073L20.1275 4.90638C18.1358 3.07566 15.8144 2.51371 13.9137 3.15333C11.9865 3.80189 10.6949 5.6201 10.6949 8.08863H12.1949ZM23.0869 15.3777C24.2726 14.5134 25.6113 13.4109 26.6609 12.1942C27.6925 10.9984 28.5449 9.57768 28.5449 8.08861H27.0449C27.0449 9.02773 26.4864 10.1001 25.5251 11.2144C24.5818 12.3079 23.3456 13.3329 22.2033 14.1655L23.0869 15.3777ZM28.5449 8.08861C28.5449 5.62009 27.2533 3.80189 25.3261 3.15333C23.4255 2.51371 21.1041 3.07566 19.1124 4.90638L20.1275 6.01073C21.8144 4.46013 23.5805 4.14853 24.8477 4.57498C26.0884 4.99249 27.0449 6.17998 27.0449 8.08861H28.5449ZM16.153 15.3776C17.4155 16.298 18.268 16.9502 19.62 16.9502L19.62 15.4502C18.8412 15.4502 18.3871 15.15 17.0366 14.1655L16.153 15.3776ZM22.2033 14.1655C20.8528 15.15 20.3987 15.4502 19.62 15.4502L19.62 16.9502C20.9719 16.9502 21.8244 16.298 23.0869 15.3777L22.2033 14.1655Z" fill="#98A987"/>
<path d="M23.9959 29.0206C23.9369 29.0275 23.8772 29.034 23.8168 29.0402C23.8765 29.0402 23.9362 29.0334 23.9959 29.0206Z" fill="#98A987"/>
<path d="M8.17505 33.715H11.87C13.5228 33.715 15.1933 33.8872 16.8018 34.2186C19.6471 34.8048 22.6429 34.8758 25.5174 34.4105C26.9347 34.1811 28.3281 33.8303 29.5894 33.2215C30.728 32.6719 32.1228 31.8973 33.0596 31.0296C33.9951 30.1631 34.9694 28.7451 35.6609 27.6367C36.2539 26.6862 35.9671 25.5201 35.0292 24.8119C33.9873 24.0252 32.4413 24.0254 31.3996 24.8122L28.4448 27.0443C27.2997 27.9094 26.0488 28.7056 24.5587 28.9433C24.3795 28.9719 24.1918 28.9979 23.9959 29.0206M23.9959 29.0206C23.9369 29.0275 23.8772 29.034 23.8168 29.0402M23.9959 29.0206C24.2343 28.9695 24.471 28.8226 24.6931 28.6287C25.7447 27.7109 25.8112 26.164 24.8987 25.139C24.687 24.9012 24.4393 24.7029 24.1638 24.5386C19.5902 21.8107 12.4741 23.8884 8.17505 26.9372M23.9959 29.0206C23.9362 29.0334 23.8765 29.0402 23.8168 29.0402M23.8168 29.0402C22.9611 29.1281 21.96 29.1508 20.8492 29.0459" stroke="#98A987" stroke-width="1.5" stroke-linecap="round"/>
<rect x="3.27002" y="23.27" width="4.905" height="13.08" rx="1.5" fill="#98A987" stroke="#98A987" stroke-width="1.5"/>
</svg>
