<svg width="24" height="24" viewBox="0 0 24 24" fill="none" xmlns="http://www.w3.org/2000/svg">
<g clip-path="url(#clip0_1_621)">
<g clip-path="url(#clip1_1_621)">
<g clip-path="url(#clip2_1_621)">
<path d="M12 2.16094C15.2062 2.16094 15.5859 2.175 16.8469 2.23125C18.0187 2.28282 18.6516 2.47969 19.0734 2.64375C19.6313 2.85938 20.0344 3.12187 20.4516 3.53906C20.8734 3.96094 21.1313 4.35938 21.3469 4.91718C21.511 5.33906 21.7078 5.97656 21.7594 7.14375C21.8156 8.40936 21.8297 8.78904 21.8297 11.9906C21.8297 15.1969 21.8156 15.5766 21.7594 16.8375C21.7078 18.0094 21.511 18.6422 21.3469 19.0641C21.1313 19.6218 20.8687 20.025 20.4516 20.4422C20.0297 20.8641 19.6313 21.1218 19.0734 21.3375C18.6516 21.5016 18.0141 21.6984 16.8469 21.75C15.5813 21.8062 15.2016 21.8203 12 21.8203C8.79376 21.8203 8.41408 21.8062 7.15313 21.75C5.98125 21.6984 5.34844 21.5016 4.92656 21.3375C4.36875 21.1218 3.96562 20.8594 3.54844 20.4422C3.12656 20.0203 2.86875 19.6218 2.65313 19.0641C2.48906 18.6422 2.29218 18.0047 2.24062 16.8375C2.18438 15.5718 2.17031 15.1922 2.17031 11.9906C2.17031 8.7844 2.18438 8.40472 2.24062 7.14375C2.29218 5.97187 2.48906 5.33906 2.65313 4.91718C2.86875 4.35938 3.13125 3.95625 3.54844 3.53906C3.97031 3.11718 4.36875 2.85938 4.92656 2.64375C5.34844 2.47969 5.98594 2.28282 7.15313 2.23125C8.41408 2.175 8.79376 2.16094 12 2.16094ZM12 0C8.74216 0 8.3344 0.0140625 7.05469 0.0703125C5.77969 0.126562 4.90313 0.332813 4.14375 0.628125C3.35156 0.937496 2.68125 1.34531 2.01562 2.01562C1.34531 2.68125 0.937504 3.35156 0.628125 4.13906C0.332813 4.90313 0.126562 5.775 0.0703125 7.05C0.0140625 8.3344 0 8.74216 0 12C0 15.2578 0.0140625 15.6656 0.0703125 16.9453C0.126562 18.2203 0.332813 19.0969 0.628125 19.8562C0.937504 20.6484 1.34531 21.3187 2.01562 21.9844C2.68125 22.65 3.35156 23.0625 4.13906 23.3672C4.90313 23.6625 5.775 23.8687 7.05 23.925C8.32968 23.9813 8.73752 23.9953 11.9953 23.9953C15.2531 23.9953 15.661 23.9813 16.9406 23.925C18.2156 23.8687 19.0922 23.6625 19.8516 23.3672C20.639 23.0625 21.3094 22.65 21.975 21.9844C22.6406 21.3187 23.0531 20.6484 23.3578 19.861C23.6531 19.0969 23.8594 18.225 23.9156 16.95C23.9718 15.6703 23.9859 15.2625 23.9859 12.0047C23.9859 8.74688 23.9718 8.33904 23.9156 7.05938C23.8594 5.78438 23.6531 4.90782 23.3578 4.14844C23.0625 3.35156 22.6547 2.68125 21.9844 2.01562C21.3187 1.35 20.6485 0.937504 19.861 0.632813C19.0969 0.3375 18.225 0.13125 16.95 0.075C15.6656 0.0140625 15.2578 0 12 0Z" fill="white"/>
<path d="M12 5.83594C8.59688 5.83594 5.83594 8.59688 5.83594 12C5.83594 15.4031 8.59688 18.1641 12 18.1641C15.4031 18.1641 18.1641 15.4031 18.1641 12C18.1641 8.59688 15.4031 5.83594 12 5.83594ZM12 15.9984C9.79216 15.9984 8.0016 14.2078 8.0016 12C8.0016 9.79216 9.79216 8.0016 12 8.0016C14.2078 8.0016 15.9984 9.79216 15.9984 12C15.9984 14.2078 14.2078 15.9984 12 15.9984Z" fill="white"/>
<path d="M19.8469 5.59214C19.8469 6.38901 19.2 7.0312 18.4078 7.0312C17.611 7.0312 16.9687 6.38432 16.9687 5.59214C16.9687 4.79526 17.6156 4.15308 18.4078 4.15308C19.2 4.15308 19.8469 4.79995 19.8469 5.59214Z" fill="white"/>
</g>
</g>
</g>
<defs>
<clipPath id="clip0_1_621">
<rect width="24" height="24" fill="white"/>
</clipPath>
<clipPath id="clip1_1_621">
<rect width="24" height="24" fill="white"/>
</clipPath>
<clipPath id="clip2_1_621">
<rect width="24" height="24" fill="white"/>
</clipPath>
</defs>
</svg>
