<svg width="40" height="40" viewBox="0 0 40 40" fill="none" xmlns="http://www.w3.org/2000/svg">
<path d="M33.2095 21.0583L34.0558 17.8997C35.0438 14.2127 35.5378 12.3691 35.1658 10.7737C34.872 9.51403 34.2114 8.36972 33.2673 7.4855C32.0716 6.36565 30.2281 5.87168 26.5411 4.88373C22.854 3.89579 21.0105 3.40182 19.4151 3.77381C18.1554 4.06753 17.0111 4.7282 16.1269 5.67227C15.1681 6.69597 14.6681 8.1946 13.924 10.9186C13.7991 11.376 13.6672 11.8681 13.5252 12.3982L13.5251 12.3985L12.6787 15.5571C11.6908 19.2441 11.1968 21.0877 11.5688 22.6831C11.8625 23.9428 12.5232 25.0871 13.4673 25.9713C14.6629 27.0911 16.5065 27.5851 20.1935 28.5731C23.5168 29.4635 25.3424 29.9527 26.8385 29.7682C27.0023 29.748 27.1621 29.7197 27.3195 29.683C28.5792 29.3893 29.7235 28.7286 30.6077 27.7845C31.7276 26.5889 32.2216 24.7453 33.2095 21.0583Z" fill="#1470C4" stroke="#1470C4" stroke-width="1.5"/>
<path d="M26.8385 29.7677C26.4976 30.8116 25.8982 31.756 25.0923 32.5108C23.8967 33.6307 22.0531 34.1246 18.3661 35.1126C14.679 36.1005 12.8355 36.5945 11.2401 36.2225C9.9804 35.9288 8.83608 35.2681 7.95186 34.324C6.83201 33.1284 6.33804 31.2849 5.3501 27.5978L4.50376 24.4392C3.51581 20.7522 3.02184 18.9086 3.39383 17.3133C3.68756 16.0536 4.34823 14.9092 5.2923 14.025C6.48795 12.9052 8.33148 12.4112 12.0185 11.4233C12.7161 11.2363 13.3476 11.0671 13.924 10.9181" stroke="#1470C4" stroke-width="1.5"/>
<path d="M19.2552 16.73L27.1516 18.8459" stroke="white" stroke-width="1.5" stroke-linecap="round"/>
<path d="M17.985 21.4677L22.7229 22.7373" stroke="white" stroke-width="1.5" stroke-linecap="round"/>
</svg>
