<svg width="40" height="40" viewBox="0 0 40 40" fill="none" xmlns="http://www.w3.org/2000/svg">
<path d="M15.9948 6.10196C18.3181 5.01272 20.9218 5.01273 23.2451 6.10196L34.1853 11.2309C36.5649 12.3466 36.5649 16.2086 34.1852 17.3242L23.2453 22.4531C20.9219 23.5423 18.3183 23.5423 15.9949 22.4531L5.05478 17.3241C2.67509 16.2085 2.6751 12.3465 5.05479 11.2309L15.9948 6.10196Z" fill="#DE6F09" stroke="#DE6F09" stroke-width="1.5"/>
<path d="M3.27002 14.2775V23.27" stroke="#DE6F09" stroke-width="1.5" stroke-linecap="round"/>
<path d="M19.62 34.715C16.6835 34.715 12.8408 32.8817 10.44 31.5522C8.99822 30.7537 8.17499 29.2107 8.17499 27.5626V19.1825H31.065V27.5626C31.065 29.2107 30.2418 30.7537 28.8 31.5522C26.3992 32.8817 22.5565 34.715 19.62 34.715Z" stroke="#DE6F09" stroke-width="1.5" stroke-linecap="round"/>
</svg>
