<svg width="24" height="24" viewBox="0 0 24 24" fill="none" xmlns="http://www.w3.org/2000/svg">
<path opacity="0.7" d="M7.55016 21.7498C16.6046 21.7498 21.5583 14.2466 21.5583 7.74174C21.5583 7.5308 21.5536 7.31518 21.5442 7.10424C22.5078 6.40734 23.3395 5.54413 24 4.55517C23.1026 4.95448 22.1497 5.21526 21.1739 5.32861C22.2013 4.71278 22.9706 3.74535 23.339 2.60565C22.3726 3.17844 21.3156 3.58249 20.2134 3.80049C19.4708 3.01144 18.489 2.48899 17.4197 2.31393C16.3504 2.13886 15.2532 2.32093 14.2978 2.83197C13.3423 3.34302 12.5818 4.15458 12.1338 5.14119C11.6859 6.1278 11.5754 7.2345 11.8195 8.29017C9.86248 8.19197 7.94794 7.68358 6.19998 6.79798C4.45202 5.91237 2.9097 4.66932 1.67297 3.1494C1.0444 4.23312 0.852056 5.51553 1.13503 6.73597C1.41801 7.95642 2.15506 9.02333 3.19641 9.71985C2.41463 9.69505 1.64998 9.48456 0.965624 9.1058V9.16674C0.964928 10.304 1.3581 11.4065 2.07831 12.2866C2.79852 13.1668 3.80132 13.7704 4.91625 13.9949C4.19206 14.193 3.43198 14.2218 2.69484 14.0792C3.00946 15.0573 3.62158 15.9128 4.44577 16.5262C5.26997 17.1397 6.26512 17.4805 7.29234 17.5011C5.54842 18.871 3.39418 19.614 1.17656 19.6105C0.783287 19.6099 0.390399 19.5858 0 19.5383C2.25286 20.9836 4.87353 21.7513 7.55016 21.7498Z" fill="white"/>
</svg>
