<svg width="40" height="40" viewBox="0 0 40 40" fill="none" xmlns="http://www.w3.org/2000/svg">
<path d="M3.27503 19.5348C3.33608 16.5228 3.3666 15.0168 4.36711 13.7275C4.54973 13.4922 4.81766 13.2126 5.04224 13.023C6.27263 11.9843 7.8971 11.9843 11.146 11.9843C12.3068 11.9843 12.8872 11.9843 13.4404 11.8324C13.5554 11.8008 13.6691 11.7645 13.7814 11.7233C14.3217 11.5254 14.8063 11.1847 15.7755 10.5033C19.5992 7.81498 21.511 6.47082 23.1157 7.05475C23.4234 7.1667 23.7212 7.3283 23.9872 7.52762C25.3744 8.56718 25.4798 10.9859 25.6906 15.8232C25.7687 17.6143 25.8218 19.1473 25.8218 20C25.8218 20.8527 25.7687 22.3857 25.6906 24.1768C25.4798 29.0142 25.3744 31.4328 23.9872 32.4724C23.7212 32.6717 23.4234 32.8333 23.1157 32.9453C21.511 33.5292 19.5992 32.185 15.7755 29.4967C14.8063 28.8153 14.3217 28.4746 13.7814 28.2767C13.6691 28.2356 13.5554 28.1992 13.4404 28.1676C12.8872 28.0157 12.3068 28.0157 11.146 28.0157C7.8971 28.0157 6.27263 28.0157 5.04224 26.977C4.81766 26.7874 4.54973 26.5078 4.36711 26.2725C3.3666 24.9832 3.33608 23.4772 3.27503 20.4652C3.27182 20.307 3.27014 20.1517 3.27014 20C3.27014 19.8483 3.27182 19.693 3.27503 19.5348Z" fill="#98A987"/>
<path fill-rule="evenodd" clip-rule="evenodd" d="M31.8655 9.45784C32.3439 9.03273 33.0549 9.10166 33.4536 9.61179L32.5874 10.3815C33.4536 9.61179 33.4532 9.61125 33.4536 9.61179L33.4553 9.614L33.4573 9.61648L33.4617 9.62226L33.473 9.63712C33.4816 9.6485 33.4922 9.66282 33.5047 9.68012C33.5298 9.7147 33.5626 9.76119 33.6018 9.81981C33.6804 9.93706 33.785 10.1028 33.9067 10.319C34.15 10.7516 34.4611 11.3851 34.7674 12.2344C35.3811 13.9359 35.9701 16.487 35.9701 20.0004C35.9701 23.5138 35.3811 26.0649 34.7674 27.7664C34.4611 28.6157 34.15 29.2492 33.9067 29.6818C33.785 29.898 33.6804 30.0637 33.6018 30.181C33.5626 30.2396 33.5298 30.2861 33.5047 30.3207C33.4922 30.338 33.4816 30.3523 33.473 30.3637L33.4617 30.3785L33.4573 30.3843L33.4553 30.3868C33.4549 30.3873 33.4536 30.389 32.5874 29.6193L33.4536 30.389C33.0549 30.8991 32.3439 30.9681 31.8655 30.5429C31.3894 30.1199 31.3231 29.3669 31.7155 28.8569C31.7164 28.8556 31.7181 28.8533 31.7207 28.8498C31.7286 28.8388 31.7443 28.8167 31.7667 28.7833C31.8115 28.7164 31.8831 28.6041 31.9729 28.4446C32.1523 28.1256 32.4051 27.6169 32.6625 26.9032C33.1764 25.4786 33.715 23.2202 33.715 20.0004C33.715 16.7806 33.1764 14.5222 32.6625 13.0976C32.4051 12.3839 32.1523 11.8751 31.9729 11.5562C31.8831 11.3967 31.8115 11.2844 31.7667 11.2175C31.7443 11.1841 31.7286 11.162 31.7207 11.151C31.7181 11.1475 31.7163 11.1451 31.7154 11.1439C31.7154 11.1439 31.7154 11.1439 31.7154 11.1439" fill="#98A987"/>
<path fill-rule="evenodd" clip-rule="evenodd" d="M29.0331 14.1401C29.5774 13.8176 30.2639 14.0268 30.5664 14.6072L29.5807 15.1911C30.5664 14.6072 30.5661 14.6067 30.5664 14.6072L30.5674 14.6093L30.5686 14.6116L30.5711 14.6165L30.5769 14.6279L30.5914 14.6573C30.6023 14.6798 30.6156 14.7083 30.631 14.7428C30.6618 14.8118 30.7008 14.9047 30.7451 15.0226C30.8336 15.2586 30.9427 15.5935 31.0488 16.0348C31.2612 16.918 31.46 18.2209 31.46 20.0006C31.46 21.7803 31.2612 23.0832 31.0488 23.9664C30.9427 24.4076 30.8336 24.7426 30.7451 24.9785C30.7008 25.0964 30.6618 25.1894 30.631 25.2584C30.6156 25.2929 30.6023 25.3213 30.5914 25.3439L30.5769 25.3733L30.5711 25.3847L30.5686 25.3896L30.5674 25.3918C30.5672 25.3924 30.5664 25.3939 29.5807 24.81L30.5664 25.3939C30.2639 25.9744 29.5774 26.1836 29.0331 25.8611C28.4933 25.5413 28.2959 24.819 28.5874 24.2409L28.5949 24.2245C28.6052 24.2014 28.6249 24.1554 28.6512 24.0854C28.7036 23.9456 28.7824 23.7095 28.8643 23.3691C29.0278 22.6893 29.2048 21.5875 29.2048 20.0006C29.2048 18.4137 29.0278 17.3119 28.8643 16.632C28.7824 16.2917 28.7036 16.0556 28.6512 15.9157C28.6249 15.8458 28.6052 15.7997 28.5949 15.7767L28.5874 15.7602C28.2959 15.1822 28.4933 14.4598 29.0331 14.1401Z" fill="#98A987"/>
</svg>
